# xmcd CD database file
#
# Track frame offsets:
#	150
#	19805
#	36005
#	56612
#	71129
#	88792
#
# Disc length: 1526 seconds
#
# Revision: 0
# Processed by: cddbd v1.5.1PL2 Copyright (c) Steve Scherf et al.
# Submitted via: CDex 1.51
#
DISCID=4c05f406
DTITLE=The Red Cents - For as Long as you Like
DYEAR=2005
DGENRE=Blues
TTITLE0=Louie's Lament
TTITLE1=Mercy Me (I Need You Now)
TTITLE2=For as Long as you Like
TTITLE3=The Bygone Way
TTITLE4=Ragnarok
TTITLE5=Pro Bono
EXTD=YEAR: 2005
EXTT0=
EXTT1=
EXTT2=
EXTT3=
EXTT4=
EXTT5=
PLAYORDER=
